<svg width="28" height="20" viewBox="0 0 28 20" fill="none" xmlns="http://www.w3.org/2000/svg"><path d="M27.5484 15H27.0968V11.3636C27.0961 10.8816 26.9056 10.4195 26.567 10.0787C26.2283 9.73785 25.7692 9.54609 25.2903 9.54545V1.81818C25.2897 1.33616 25.0992 0.874069 24.7605 0.533231C24.4219 0.192392 23.9628 0.000631406 23.4839 0H4.51613C4.03722 0.000631406 3.57811 0.192392 3.23947 0.533231C2.90083 0.874069 2.7103 1.33616 2.70968 1.81818V9.54545C2.23077 9.54609 1.77166 9.73785 1.43302 10.0787C1.09438 10.4195 0.903853 10.8816 0.903226 11.3636V15H0.451613C0.331838 15 0.216968 15.0479 0.132274 15.1331C0.0475805 15.2184 0 15.334 0 15.4545V17.2727C0 17.3933 0.0475805 17.5089 0.132274 17.5941C0.216968 17.6794 0.331838 17.7273 0.451613 17.7273H0.903226V19.5455C0.903226 19.666 0.950806 19.7816 1.0355 19.8669C1.12019 19.9521 1.23506 20 1.35484 20H2.70968C2.81405 20 2.91522 19.9637 2.99592 19.897C3.07663 19.8304 3.13188 19.7377 3.15226 19.6347L3.53161 17.7273H24.4684L24.8477 19.6347C24.8681 19.7377 24.9234 19.8304 25.0041 19.897C25.0848 19.9637 25.1859 20 25.2903 20H26.6452C26.7649 20 26.8798 19.9521 26.9645 19.8669C27.0492 19.7816 27.0968 19.666 27.0968 19.5455V17.7273H27.5484C27.6682 17.7273 27.783 17.6794 27.8677 17.5941C27.9524 17.5089 28 17.3933 28 17.2727V15.4545C28 15.334 27.9524 15.2184 27.8677 15.1331C27.783 15.0479 27.6682 15 27.5484 15ZM3.6129 1.81818C3.61322 1.57717 3.70848 1.34613 3.8778 1.17571C4.04712 1.00529 4.27667 0.909407 4.51613 0.909091H23.4839C23.7233 0.909407 23.9529 1.00529 24.1222 1.17571C24.2915 1.34613 24.3868 1.57717 24.3871 1.81818V9.54545H23.4839V7.72727C23.4832 7.24525 23.2927 6.78316 22.9541 6.44232C22.6154 6.10148 22.1563 5.90972 21.6774 5.90909H16.2581C15.7792 5.90972 15.32 6.10148 14.9814 6.44232C14.6428 6.78316 14.4522 7.24525 14.4516 7.72727V9.54545H13.5484V7.72727C13.5478 7.24525 13.3572 6.78316 13.0186 6.44232C12.68 6.10148 12.2208 5.90972 11.7419 5.90909H6.32258C5.84367 5.90972 5.38456 6.10148 5.04592 6.44232C4.70728 6.78316 4.51676 7.24525 4.51613 7.72727V9.54545H3.6129V1.81818ZM22.5806 7.72727V9.54545H15.3548V7.72727C15.3552 7.48626 15.4504 7.25522 15.6197 7.0848C15.7891 6.91438 16.0186 6.8185 16.2581 6.81818H21.6774C21.9169 6.8185 22.1464 6.91438 22.3158 7.0848C22.4851 7.25522 22.5803 7.48626 22.5806 7.72727ZM12.6452 7.72727V9.54545H5.41935V7.72727C5.41967 7.48626 5.51493 7.25522 5.68425 7.0848C5.85357 6.91438 6.08313 6.8185 6.32258 6.81818H11.7419C11.9814 6.8185 12.2109 6.91438 12.3803 7.0848C12.5496 7.25522 12.6448 7.48626 12.6452 7.72727ZM1.80645 11.3636C1.80677 11.1226 1.90203 10.8916 2.07135 10.7212C2.24067 10.5507 2.47022 10.4549 2.70968 10.4545H25.2903C25.5298 10.4549 25.7593 10.5507 25.9287 10.7212C26.098 10.8916 26.1932 11.1226 26.1935 11.3636V15H1.80645V11.3636ZM2.33935 19.0909H1.80645V17.7273H2.61032L2.33935 19.0909ZM26.1935 19.0909H25.6606L25.3897 17.7273H26.1935V19.0909ZM27.0968 16.8182H0.903226V15.9091H27.0968V16.8182Z" fill="black"/></svg>