<svg width="18" height="13" viewBox="0 0 18 13" fill="none" xmlns="http://www.w3.org/2000/svg"><path d="M16.418 0H1.58203C0.710789 0 0 0.6732 0 1.5V11.5C0 12.324 0.707625 13 1.58203 13H16.418C17.287 13 18 12.3291 18 11.5V1.5C18 0.676 17.2924 0 16.418 0ZM16.1995 1L9.03354 7.79443L1.80559 1H16.1995ZM1.05469 11.2929V1.7023L6.13403 6.47697L1.05469 11.2929ZM1.80046 12L6.883 7.181L8.66391 8.85507C8.87006 9.04887 9.20275 9.04823 9.40806 8.85353L11.1445 7.2071L16.1995 12H1.80046ZM16.9453 11.2929L11.8903 6.5L16.9453 1.70707V11.2929Z" fill="white"/></svg>