<svg width="13" height="13" viewBox="0 0 13 13" fill="none" xmlns="http://www.w3.org/2000/svg"><path fill-rule="evenodd" clip-rule="evenodd" d="M11.1059 1.88922C9.88386 0.671582 8.25862 0.00071411 6.52719 0C2.95939 0 0.0557293 2.88969 0.0542942 6.44136C0.0538159 7.57672 0.351836 8.68502 0.918298 9.66193L0 13L3.43138 12.1042C4.37686 12.6175 5.4413 12.888 6.52456 12.8883H6.52727C10.0947 12.8883 12.9986 9.99835 13 6.44652C13.0007 4.72519 12.3281 3.10678 11.1059 1.88922ZM6.52719 11.8004H6.52495C5.55962 11.8 4.61286 11.5418 3.78672 11.054L3.59036 10.938L1.55412 11.4696L2.09762 9.49379L1.96966 9.29122C1.4311 8.43873 1.14672 7.45342 1.14719 6.44176C1.14831 3.4897 3.56181 1.08799 6.52934 1.08799C7.96634 1.08846 9.31716 1.64611 10.3329 2.65816C11.3486 3.67021 11.9077 5.01544 11.9072 6.44612C11.9059 9.39842 9.49256 11.8004 6.52719 11.8004ZM9.47821 7.79032C9.31652 7.7097 8.52132 7.32043 8.37303 7.26664C8.2249 7.21292 8.11695 7.18618 8.00924 7.34725C7.90136 7.50833 7.59147 7.87093 7.49707 7.97829C7.40267 8.08572 7.30843 8.09921 7.14667 8.0186C6.9849 7.93806 6.4638 7.76802 5.846 7.21967C5.36524 6.79286 5.04067 6.26577 4.94628 6.1047C4.85204 5.94347 4.94548 5.86476 5.01723 5.77621C5.19231 5.55983 5.36763 5.33298 5.42153 5.22563C5.47551 5.11819 5.44848 5.02417 5.40798 4.94363C5.36763 4.8631 5.04418 4.07083 4.90944 3.74845C4.77805 3.43472 4.64483 3.47709 4.54549 3.47217C4.45125 3.46749 4.34338 3.46653 4.23551 3.46653C4.12772 3.46653 3.95248 3.50676 3.80418 3.66799C3.65597 3.82914 3.2382 4.21849 3.2382 5.01076C3.2382 5.80303 3.81774 6.5684 3.89858 6.67583C3.97942 6.78326 5.03908 8.40906 6.66145 9.10619C7.04733 9.27218 7.34854 9.37112 7.58349 9.44531C7.97097 9.56782 8.32344 9.55052 8.60217 9.50911C8.91294 9.46285 9.55897 9.11968 9.69387 8.74374C9.82861 8.36772 9.82861 8.0455 9.78811 7.97829C9.74777 7.91116 9.6399 7.87093 9.47821 7.79032Z" fill="white"/></svg>