<svg xmlns="http://www.w3.org/2000/svg" xmlns:xlink="http://www.w3.org/1999/xlink"><symbol id="icon-arrow-left" viewBox="0 0 8 15"><g fill="none">
<path d="M7.42188 13.845L0.99942 7.42252L7.42188 1.00006" stroke="black"/>
</g></symbol><symbol id="icon-attention" viewBox="0 0 25 25"><g fill="none">
<rect x="0.5" y="0.5" width="24" height="24" rx="4.5" stroke="#FF0000"/>
<path d="M12.9844 14.6484H11.3516L11.1719 6.625H13.1719L12.9844 14.6484ZM11.1172 17.1016C11.1172 16.8047 11.2135 16.5599 11.4062 16.3672C11.599 16.1693 11.862 16.0703 12.1953 16.0703C12.5286 16.0703 12.7917 16.1693 12.9844 16.3672C13.1771 16.5599 13.2734 16.8047 13.2734 17.1016C13.2734 17.388 13.1797 17.6276 12.9922 17.8203C12.8047 18.013 12.5391 18.1094 12.1953 18.1094C11.8516 18.1094 11.5859 18.013 11.3984 17.8203C11.2109 17.6276 11.1172 17.388 11.1172 17.1016Z" fill="#FF0000"/>
</g></symbol><symbol id="icon-bed" viewBox="0 0 28 20"><g fill="none">
<path d="M27.5484 15H27.0968V11.3636C27.0961 10.8816 26.9056 10.4195 26.567 10.0787C26.2283 9.73785 25.7692 9.54609 25.2903 9.54545V1.81818C25.2897 1.33616 25.0992 0.874069 24.7605 0.533231C24.4219 0.192392 23.9628 0.000631406 23.4839 0H4.51613C4.03722 0.000631406 3.57811 0.192392 3.23947 0.533231C2.90083 0.874069 2.7103 1.33616 2.70968 1.81818V9.54545C2.23077 9.54609 1.77166 9.73785 1.43302 10.0787C1.09438 10.4195 0.903853 10.8816 0.903226 11.3636V15H0.451613C0.331838 15 0.216968 15.0479 0.132274 15.1331C0.0475805 15.2184 0 15.334 0 15.4545V17.2727C0 17.3933 0.0475805 17.5089 0.132274 17.5941C0.216968 17.6794 0.331838 17.7273 0.451613 17.7273H0.903226V19.5455C0.903226 19.666 0.950806 19.7816 1.0355 19.8669C1.12019 19.9521 1.23506 20 1.35484 20H2.70968C2.81405 20 2.91522 19.9637 2.99592 19.897C3.07663 19.8304 3.13188 19.7377 3.15226 19.6347L3.53161 17.7273H24.4684L24.8477 19.6347C24.8681 19.7377 24.9234 19.8304 25.0041 19.897C25.0848 19.9637 25.1859 20 25.2903 20H26.6452C26.7649 20 26.8798 19.9521 26.9645 19.8669C27.0492 19.7816 27.0968 19.666 27.0968 19.5455V17.7273H27.5484C27.6682 17.7273 27.783 17.6794 27.8677 17.5941C27.9524 17.5089 28 17.3933 28 17.2727V15.4545C28 15.334 27.9524 15.2184 27.8677 15.1331C27.783 15.0479 27.6682 15 27.5484 15ZM3.6129 1.81818C3.61322 1.57717 3.70848 1.34613 3.8778 1.17571C4.04712 1.00529 4.27667 0.909407 4.51613 0.909091H23.4839C23.7233 0.909407 23.9529 1.00529 24.1222 1.17571C24.2915 1.34613 24.3868 1.57717 24.3871 1.81818V9.54545H23.4839V7.72727C23.4832 7.24525 23.2927 6.78316 22.9541 6.44232C22.6154 6.10148 22.1563 5.90972 21.6774 5.90909H16.2581C15.7792 5.90972 15.32 6.10148 14.9814 6.44232C14.6428 6.78316 14.4522 7.24525 14.4516 7.72727V9.54545H13.5484V7.72727C13.5478 7.24525 13.3572 6.78316 13.0186 6.44232C12.68 6.10148 12.2208 5.90972 11.7419 5.90909H6.32258C5.84367 5.90972 5.38456 6.10148 5.04592 6.44232C4.70728 6.78316 4.51676 7.24525 4.51613 7.72727V9.54545H3.6129V1.81818ZM22.5806 7.72727V9.54545H15.3548V7.72727C15.3552 7.48626 15.4504 7.25522 15.6197 7.0848C15.7891 6.91438 16.0186 6.8185 16.2581 6.81818H21.6774C21.9169 6.8185 22.1464 6.91438 22.3158 7.0848C22.4851 7.25522 22.5803 7.48626 22.5806 7.72727ZM12.6452 7.72727V9.54545H5.41935V7.72727C5.41967 7.48626 5.51493 7.25522 5.68425 7.0848C5.85357 6.91438 6.08313 6.8185 6.32258 6.81818H11.7419C11.9814 6.8185 12.2109 6.91438 12.3803 7.0848C12.5496 7.25522 12.6448 7.48626 12.6452 7.72727ZM1.80645 11.3636C1.80677 11.1226 1.90203 10.8916 2.07135 10.7212C2.24067 10.5507 2.47022 10.4549 2.70968 10.4545H25.2903C25.5298 10.4549 25.7593 10.5507 25.9287 10.7212C26.098 10.8916 26.1932 11.1226 26.1935 11.3636V15H1.80645V11.3636ZM2.33935 19.0909H1.80645V17.7273H2.61032L2.33935 19.0909ZM26.1935 19.0909H25.6606L25.3897 17.7273H26.1935V19.0909ZM27.0968 16.8182H0.903226V15.9091H27.0968V16.8182Z" fill="black"/>
</g></symbol><symbol id="icon-email" viewBox="0 0 18 13"><g fill="none">
<path d="M16.418 0H1.58203C0.710789 0 0 0.6732 0 1.5V11.5C0 12.324 0.707625 13 1.58203 13H16.418C17.287 13 18 12.3291 18 11.5V1.5C18 0.676 17.2924 0 16.418 0ZM16.1995 1L9.03354 7.79443L1.80559 1H16.1995ZM1.05469 11.2929V1.7023L6.13403 6.47697L1.05469 11.2929ZM1.80046 12L6.883 7.181L8.66391 8.85507C8.87006 9.04887 9.20275 9.04823 9.40806 8.85353L11.1445 7.2071L16.1995 12H1.80046ZM16.9453 11.2929L11.8903 6.5L16.9453 1.70707V11.2929Z" fill="white"/>
</g></symbol><symbol id="icon-room" viewBox="0 0 24 24"><g fill="none">
<path d="M11.1129 1.00005L11.1129 13.2995M11.1129 16.9788L11.1129 22.8657M15.2968 9.95657H11.0918M22.0247 9.95657H17.8197M1 1H22.8657V22.8657H1V1Z" stroke="black" stroke-width="1.09328"/>
</g></symbol><symbol id="icon-whatsapp" viewBox="0 0 13 13"><g fill="none">
<path fill-rule="evenodd" clip-rule="evenodd" d="M11.1059 1.88922C9.88386 0.671582 8.25862 0.00071411 6.52719 0C2.95939 0 0.0557293 2.88969 0.0542942 6.44136C0.0538159 7.57672 0.351836 8.68502 0.918298 9.66193L0 13L3.43138 12.1042C4.37686 12.6175 5.4413 12.888 6.52456 12.8883H6.52727C10.0947 12.8883 12.9986 9.99835 13 6.44652C13.0007 4.72519 12.3281 3.10678 11.1059 1.88922ZM6.52719 11.8004H6.52495C5.55962 11.8 4.61286 11.5418 3.78672 11.054L3.59036 10.938L1.55412 11.4696L2.09762 9.49379L1.96966 9.29122C1.4311 8.43873 1.14672 7.45342 1.14719 6.44176C1.14831 3.4897 3.56181 1.08799 6.52934 1.08799C7.96634 1.08846 9.31716 1.64611 10.3329 2.65816C11.3486 3.67021 11.9077 5.01544 11.9072 6.44612C11.9059 9.39842 9.49256 11.8004 6.52719 11.8004ZM9.47821 7.79032C9.31652 7.7097 8.52132 7.32043 8.37303 7.26664C8.2249 7.21292 8.11695 7.18618 8.00924 7.34725C7.90136 7.50833 7.59147 7.87093 7.49707 7.97829C7.40267 8.08572 7.30843 8.09921 7.14667 8.0186C6.9849 7.93806 6.4638 7.76802 5.846 7.21967C5.36524 6.79286 5.04067 6.26577 4.94628 6.1047C4.85204 5.94347 4.94548 5.86476 5.01723 5.77621C5.19231 5.55983 5.36763 5.33298 5.42153 5.22563C5.47551 5.11819 5.44848 5.02417 5.40798 4.94363C5.36763 4.8631 5.04418 4.07083 4.90944 3.74845C4.77805 3.43472 4.64483 3.47709 4.54549 3.47217C4.45125 3.46749 4.34338 3.46653 4.23551 3.46653C4.12772 3.46653 3.95248 3.50676 3.80418 3.66799C3.65597 3.82914 3.2382 4.21849 3.2382 5.01076C3.2382 5.80303 3.81774 6.5684 3.89858 6.67583C3.97942 6.78326 5.03908 8.40906 6.66145 9.10619C7.04733 9.27218 7.34854 9.37112 7.58349 9.44531C7.97097 9.56782 8.32344 9.55052 8.60217 9.50911C8.91294 9.46285 9.55897 9.11968 9.69387 8.74374C9.82861 8.36772 9.82861 8.0455 9.78811 7.97829C9.74777 7.91116 9.6399 7.87093 9.47821 7.79032Z" fill="white"/>
</g></symbol></svg>