<svg width="51" height="47" viewBox="0 0 51 47" fill="none" xmlns="http://www.w3.org/2000/svg">
<path d="M50.957 36.0029C50.9455 35.9746 50.9316 35.9472 50.9156 35.9211H50.9579V10.7644C50.9579 10.7587 50.9579 10.7529 50.9579 10.7472V10.7186C50.9579 10.708 50.9579 10.6982 50.9579 10.6876C50.9579 10.6769 50.9579 10.6679 50.9579 10.6589C50.9579 10.65 50.9579 10.6377 50.9579 10.6279V10.5429H50.9454C50.9454 10.5429 50.9454 10.5429 50.9454 10.538L50.938 10.5102C50.938 10.4996 50.9305 10.4889 50.9264 10.4783C50.9249 10.4722 50.923 10.4661 50.9206 10.4603V10.453C50.9164 10.4423 50.9106 10.4317 50.9057 10.4211L50.8941 10.3974L50.8775 10.3696C50.8725 10.3614 50.8684 10.3532 50.8626 10.3451L50.8443 10.3205L50.8269 10.2977L50.8046 10.2723L50.7872 10.2535L50.759 10.2282L50.7424 10.2135L50.7109 10.1898L50.6944 10.1775L50.662 10.1579L50.6422 10.1464L50.6107 10.1309L50.5858 10.1195L50.5767 10.1154L25.2193 0.0459863C25.068 -0.0153288 24.8982 -0.0153288 24.7469 0.0459863L0.398831 10.0786C0.28197 10.1271 0.182838 10.2096 0.114604 10.315C0.0463702 10.4204 0.0122632 10.5438 0.0168124 10.6688V35.926C-0.0180715 36.0732 0.00171552 36.2277 0.0725787 36.3617C0.143442 36.4956 0.260676 36.6 0.402973 36.656C3.7359 37.9638 7.02242 39.4048 10.2012 40.796C11.4765 41.3543 12.7941 41.9314 14.096 42.4929L14.149 42.5134C14.3028 42.561 14.4602 42.5963 14.6197 42.6188C14.7034 42.6306 14.7864 42.6469 14.8683 42.6678C18.8153 44.471 22.0827 45.8483 25.1439 47H25.593C27.5818 46.2766 29.5574 45.447 31.4666 44.6484C32.5878 44.1784 33.7471 43.6928 34.8808 43.2408C34.8998 43.2327 34.9181 43.2245 34.9355 43.2155C35.0865 43.1973 35.2256 43.1253 35.3265 43.013C35.4274 42.9007 35.4831 42.7558 35.4832 42.6057V30.4356L41.6154 32.945V39.4997C41.6153 39.6519 41.6725 39.7989 41.776 39.9119C41.8796 40.0249 42.022 40.0959 42.1756 40.1111C42.2162 40.1198 42.2575 40.1245 42.2991 40.125C42.3846 40.1248 42.4691 40.1076 42.5477 40.0743L44.3301 39.3313C46.0405 38.6201 48.2978 37.6965 50.5891 36.8194C50.6677 36.7897 50.7396 36.745 50.8006 36.6879C50.8617 36.6308 50.9107 36.5623 50.9449 36.4865C50.979 36.4106 50.9977 36.3288 50.9998 36.2459C51.0019 36.1629 50.9874 36.0803 50.957 36.0029ZM42.5874 19.6984C42.5022 19.6421 42.4042 19.6074 42.3021 19.5976C42.2 19.5877 42.097 19.603 42.0024 19.642L34.6272 22.6664C34.5136 22.713 34.4166 22.7918 34.3483 22.8927C34.28 22.9937 34.2436 23.1123 34.2435 23.2336V29.5717L28.2472 27.1195L33.2193 18.7437C33.4264 18.4373 33.6159 18.1197 33.7869 17.7923L49.685 11.5981V35.8108L49.579 35.8516L42.8626 33.102V20.2093C42.8624 20.1081 42.8369 20.0085 42.7884 19.9194C42.7398 19.8303 42.6696 19.7544 42.5841 19.6984H42.5874ZM24.9077 30.2444L17.6924 18.0874C17.6858 18.0767 17.6792 18.0661 17.6717 18.0555C17.48 17.773 17.3054 17.4796 17.1488 17.1768L16.7345 16.2343C16.2555 14.9377 16.1006 13.5463 16.2828 12.1781C16.4651 10.8099 16.9791 9.50513 17.7814 8.37457C18.5836 7.244 19.6504 6.32092 20.8914 5.6836C22.1323 5.04628 23.5107 4.71351 24.9098 4.71351C26.3088 4.71351 27.6872 5.04628 28.9282 5.6836C30.1691 6.32092 31.2359 7.244 32.0381 8.37457C32.8404 9.50513 33.3545 10.8099 33.5367 12.1781C33.7189 13.5463 33.564 14.9377 33.085 16.2343L32.6707 17.1768C32.5127 17.4797 32.3367 17.7731 32.1437 18.0555C32.1362 18.0661 32.1296 18.0767 32.1229 18.0874L24.9077 30.2444ZM1.29048 11.6398L15.9646 17.6468L15.9862 17.695C15.9912 17.7065 15.9961 17.7171 16.0019 17.7277C16.1807 18.076 16.3805 18.4134 16.6002 18.738L21.583 27.1334L1.29048 35.4552V11.6398ZM48.6575 10.6802L34.4374 16.2123C34.8968 14.7529 35.0057 13.2082 34.7553 11.7002C34.505 10.1922 33.9023 8.76236 32.995 7.52376C32.0878 6.28517 30.9007 5.27181 29.5279 4.56384C28.155 3.85587 26.6339 3.47272 25.085 3.44468V1.31948L48.6575 10.6802ZM24.7536 1.38078V3.44877C23.2199 3.47333 21.7126 3.84605 20.3485 4.53804C18.9845 5.23002 17.8004 6.22266 16.8882 7.43896C15.9759 8.65525 15.36 10.0625 15.0881 11.5515C14.8163 13.0405 14.8959 14.5713 15.3208 16.0251L2.22026 10.6606L24.7536 1.38078ZM15.3017 41.4753C15.1483 41.4276 14.9911 41.3923 14.8318 41.3698C14.7468 41.3572 14.6624 41.3403 14.5791 41.3192C13.2889 40.7633 11.9837 40.192 10.7208 39.6386C7.72679 38.3308 4.63584 36.9764 1.49351 35.7258L21.7521 27.4203L24.292 31.7001V45.3145C21.6203 44.274 18.7465 43.0455 15.3688 41.5014L15.3017 41.4753ZM34.2402 42.1349C33.1488 42.5722 32.0417 43.034 30.9686 43.4852C29.2068 44.2209 27.3879 44.986 25.5657 45.6619V31.629L28.0749 27.4007L34.2402 29.9256V42.1349ZM35.4832 30.0817V23.644L41.6154 21.1305V32.5911L35.4832 30.0817ZM43.8338 38.1632L42.8617 38.5719V33.4559L49.134 36.0241C47.1783 36.7843 45.3047 37.5551 43.8338 38.1632Z" fill="white"/>
<path d="M24.9077 8.09399C23.9291 8.09399 22.9724 8.38023 22.1587 8.91652C21.345 9.45281 20.7108 10.2151 20.3363 11.1069C19.9618 11.9987 19.8638 12.98 20.0548 13.9268C20.2457 14.8735 20.7169 15.7432 21.4089 16.4257C22.1009 17.1083 22.9826 17.5731 23.9424 17.7614C24.9022 17.9498 25.8971 17.8531 26.8012 17.4837C27.7053 17.1143 28.4781 16.4887 29.0218 15.6861C29.5655 14.8835 29.8557 13.9399 29.8557 12.9746C29.8542 11.6807 29.3324 10.4401 28.4048 9.52516C27.4772 8.6102 26.2195 8.0955 24.9077 8.09399ZM21.2367 12.9746C21.2379 12.041 21.6043 11.1439 22.2594 10.4701C22.9146 9.79637 23.808 9.39787 24.7536 9.35767V16.5915C23.8078 16.5517 22.9142 16.1534 22.259 15.4795C21.6037 14.8056 21.2375 13.9083 21.2367 12.9746ZM25.085 16.5915V9.35849C26.0258 9.40477 26.9126 9.806 27.5618 10.4792C28.2111 11.1523 28.5732 12.0459 28.5732 12.975C28.5732 13.9041 28.2111 14.7977 27.5618 15.4709C26.9126 16.144 26.0258 16.5453 25.085 16.5915Z" fill="white"/>
</svg>
