<svg width="25" height="25" viewBox="0 0 25 25" fill="none" xmlns="http://www.w3.org/2000/svg">
<rect x="0.5" y="0.5" width="24" height="24" rx="4.5" stroke="#FF0000"/>
<path d="M12.9844 14.6484H11.3516L11.1719 6.625H13.1719L12.9844 14.6484ZM11.1172 17.1016C11.1172 16.8047 11.2135 16.5599 11.4062 16.3672C11.599 16.1693 11.862 16.0703 12.1953 16.0703C12.5286 16.0703 12.7917 16.1693 12.9844 16.3672C13.1771 16.5599 13.2734 16.8047 13.2734 17.1016C13.2734 17.388 13.1797 17.6276 12.9922 17.8203C12.8047 18.013 12.5391 18.1094 12.1953 18.1094C11.8516 18.1094 11.5859 18.013 11.3984 17.8203C11.2109 17.6276 11.1172 17.388 11.1172 17.1016Z" fill="#FF0000"/>
</svg>
